<svg xmlns="http://www.w3.org/2000/svg" viewBox="0 0 401.8 141.76"><defs><style>.cls-1{fill:#fff;}.cls-2{fill:#ddd;}.cls-3{fill:#d6e0ea;}.cls-4{fill:#ededed;}.cls-5{fill:#e4eff7;}.cls-6{fill:#dde9f2;}</style></defs><title>cloud</title><g id="Camada_2" data-name="Camada 2"><g id="Layer_1" data-name="Layer 1"><path class="cls-1" d="M131.59,54.23a30.52,30.52,0,0,0-21.33-29.1A28.76,28.76,0,0,0,65.79,4.82,28.75,28.75,0,0,0,21.33,25.13a30.51,30.51,0,0,0,9.18,59.61h71.25v0A30.49,30.49,0,0,0,131.59,54.23Z"/><path class="cls-2" d="M65.54,4.66A28.75,28.75,0,0,0,21.33,25.13a30.51,30.51,0,0,0,9.18,59.61H51.94Z"/><rect x="62.25" y="69.83" width="77.83" height="5.79"/><rect x="62.25" y="41.76" width="77.83" height="5.79"/><rect class="cls-3" x="54.42" y="74.19" width="93.15" height="26.03" rx="4.01"/><path class="cls-4" d="M93.08,74.19l-4.24,26H58.43a4,4,0,0,1-4-4v-18a4,4,0,0,1,4-4Z"/><rect x="93.72" y="46.36" width="14.57" height="81.69" transform="translate(188.21 -13.79) rotate(90)"/><path class="cls-1" d="M135.39,87.21a2.51,2.51,0,1,1-2.5-2.51A2.5,2.5,0,0,1,135.39,87.21Z"/><path class="cls-1" d="M124.56,87.21a2.15,2.15,0,1,1-2.15-2.15A2.16,2.16,0,0,1,124.56,87.21Z"/><path class="cls-1" d="M114.08,87.21a2.15,2.15,0,1,1-2.15-2.15A2.16,2.16,0,0,1,114.08,87.21Z"/><path class="cls-1" d="M103.6,87.21a2.15,2.15,0,1,1-2.15-2.15A2.15,2.15,0,0,1,103.6,87.21Z"/><path class="cls-1" d="M93.12,87.21A2.15,2.15,0,1,1,91,85.06,2.15,2.15,0,0,1,93.12,87.21Z"/><rect class="cls-3" x="54.42" y="45.68" width="93.15" height="26.03" rx="4.01"/><path class="cls-4" d="M97.72,45.68l-4.24,26H58.43a4,4,0,0,1-4-4v-18a4,4,0,0,1,4-4Z"/><rect x="93.71" y="17.85" width="14.57" height="81.69" transform="translate(159.69 -42.31) rotate(90)"/><rect class="cls-3" x="54.42" y="17.61" width="93.15" height="26.03" rx="4.01"/><path class="cls-4" d="M102.3,17.61l-4.24,26H58.43a4,4,0,0,1-4-4v-18a4,4,0,0,1,4-4Z"/><rect x="93.72" y="-10.22" width="14.57" height="81.69" transform="translate(131.63 -70.37) rotate(90)"/><circle class="cls-1" cx="132.89" cy="58.69" r="2.51"/><path class="cls-1" d="M124.56,58.69a2.15,2.15,0,1,1-2.15-2.15A2.15,2.15,0,0,1,124.56,58.69Z"/><path class="cls-1" d="M114.08,58.69a2.15,2.15,0,1,1-2.15-2.15A2.15,2.15,0,0,1,114.08,58.69Z"/><path class="cls-1" d="M103.6,58.69a2.15,2.15,0,1,1-2.15-2.15A2.15,2.15,0,0,1,103.6,58.69Z"/><path class="cls-1" d="M93.12,58.69A2.15,2.15,0,1,1,91,56.54,2.15,2.15,0,0,1,93.12,58.69Z"/><path class="cls-1" d="M135.39,30.63a2.51,2.51,0,1,1-2.5-2.51A2.51,2.51,0,0,1,135.39,30.63Z"/><path class="cls-1" d="M124.56,30.63a2.15,2.15,0,1,1-2.15-2.15A2.15,2.15,0,0,1,124.56,30.63Z"/><path class="cls-1" d="M114.08,30.63a2.15,2.15,0,1,1-2.15-2.15A2.15,2.15,0,0,1,114.08,30.63Z"/><path class="cls-1" d="M103.6,30.63a2.15,2.15,0,1,1-2.15-2.15A2.15,2.15,0,0,1,103.6,30.63Z"/><path class="cls-1" d="M93.12,30.63A2.15,2.15,0,1,1,91,28.48,2.15,2.15,0,0,1,93.12,30.63Z"/><path class="cls-1" d="M255.76,60.64a24.08,24.08,0,0,0-16.84-23,22.7,22.7,0,0,0-35.11-16,22.69,22.69,0,0,0-35.1,16A24.09,24.09,0,0,0,176,84.73H232.2A24.08,24.08,0,0,0,255.76,60.64Z"/><path class="cls-2" d="M203.61,21.5a22.69,22.69,0,0,0-34.9,16.17A24.09,24.09,0,0,0,176,84.73h16.93Z"/><rect x="165.07" y="111.36" width="77.83" height="5.79"/><rect x="165.07" y="83.3" width="77.83" height="5.79"/><rect class="cls-3" x="157.24" y="115.72" width="93.15" height="26.03" rx="4.01"/><path class="cls-4" d="M195.89,115.73l-4.24,26H161.24a4,4,0,0,1-4-4v-18a4,4,0,0,1,4-4Z"/><rect x="196.53" y="87.9" width="14.57" height="81.69" transform="translate(332.55 -75.07) rotate(90)"/><path class="cls-1" d="M238.21,128.74a2.51,2.51,0,1,1-2.51-2.51A2.51,2.51,0,0,1,238.21,128.74Z"/><path class="cls-1" d="M227.37,128.74a2.15,2.15,0,1,1-2.15-2.15A2.15,2.15,0,0,1,227.37,128.74Z"/><path class="cls-1" d="M216.89,128.74a2.15,2.15,0,1,1-2.15-2.15A2.15,2.15,0,0,1,216.89,128.74Z"/><path class="cls-1" d="M206.41,128.74a2.15,2.15,0,1,1-2.15-2.15A2.15,2.15,0,0,1,206.41,128.74Z"/><path class="cls-1" d="M195.93,128.74a2.15,2.15,0,1,1-2.15-2.15A2.15,2.15,0,0,1,195.93,128.74Z"/><rect class="cls-3" x="157.24" y="87.21" width="93.15" height="26.03" rx="4.01"/><path class="cls-4" d="M200.53,87.21l-4.23,26H161.24a4,4,0,0,1-4-4v-18a4,4,0,0,1,4-4Z"/><rect x="196.53" y="59.39" width="14.57" height="81.69" transform="translate(304.04 -103.58) rotate(90)"/><rect class="cls-3" x="157.24" y="59.15" width="93.15" height="26.03" rx="4.01"/><path class="cls-4" d="M205.11,59.14l-4.24,26H161.24a4,4,0,0,1-4-4v-18a4,4,0,0,1,4-4Z"/><rect x="196.53" y="31.32" width="14.57" height="81.69" transform="translate(275.98 -131.65) rotate(90)"/><path class="cls-1" d="M238.21,100.23a2.51,2.51,0,1,1-2.51-2.51A2.52,2.52,0,0,1,238.21,100.23Z"/><path class="cls-1" d="M227.37,100.23a2.15,2.15,0,1,1-2.15-2.15A2.15,2.15,0,0,1,227.37,100.23Z"/><path class="cls-1" d="M216.89,100.23a2.15,2.15,0,1,1-2.15-2.15A2.15,2.15,0,0,1,216.89,100.23Z"/><path class="cls-1" d="M206.41,100.23a2.15,2.15,0,1,1-2.15-2.15A2.15,2.15,0,0,1,206.41,100.23Z"/><path class="cls-1" d="M195.93,100.23a2.15,2.15,0,1,1-2.15-2.15A2.15,2.15,0,0,1,195.93,100.23Z"/><path class="cls-1" d="M238.21,72.16a2.51,2.51,0,1,1-2.51-2.5A2.51,2.51,0,0,1,238.21,72.16Z"/><path class="cls-1" d="M227.37,72.16A2.15,2.15,0,1,1,225.22,70,2.15,2.15,0,0,1,227.37,72.16Z"/><path class="cls-1" d="M216.89,72.16A2.15,2.15,0,1,1,214.74,70,2.15,2.15,0,0,1,216.89,72.16Z"/><path class="cls-1" d="M206.41,72.16A2.15,2.15,0,1,1,204.26,70,2.15,2.15,0,0,1,206.41,72.16Z"/><path class="cls-1" d="M195.93,72.16A2.15,2.15,0,1,1,193.78,70,2.15,2.15,0,0,1,195.93,72.16Z"/><path class="cls-1" d="M401.8,54.23a30.52,30.52,0,0,0-21.33-29.1A28.76,28.76,0,0,0,336,4.82a28.75,28.75,0,0,0-44.46,20.31,30.51,30.51,0,0,0,9.18,59.61H372l0,0A30.49,30.49,0,0,0,401.8,54.23Z"/><path class="cls-2" d="M335.75,4.66a28.75,28.75,0,0,0-44.21,20.47,30.51,30.51,0,0,0,9.18,59.61h21.43Z"/><rect x="267.88" y="69.83" width="77.83" height="5.79"/><rect x="267.88" y="41.76" width="77.83" height="5.79"/><rect class="cls-3" x="260.05" y="74.19" width="93.15" height="26.03" rx="4.01"/><path class="cls-4" d="M298.7,74.19l-4.24,26h-30.4a4,4,0,0,1-4-4v-18a4,4,0,0,1,4-4Z"/><rect x="299.34" y="46.36" width="14.57" height="81.69" transform="translate(393.83 -219.42) rotate(90)"/><path class="cls-1" d="M341,87.21a2.51,2.51,0,1,1-2.51-2.51A2.5,2.5,0,0,1,341,87.21Z"/><circle class="cls-1" cx="328.03" cy="87.21" r="2.15"/><path class="cls-1" d="M319.7,87.21a2.15,2.15,0,1,1-2.15-2.15A2.15,2.15,0,0,1,319.7,87.21Z"/><path class="cls-1" d="M309.22,87.21a2.15,2.15,0,1,1-2.15-2.15A2.15,2.15,0,0,1,309.22,87.21Z"/><path class="cls-1" d="M298.74,87.21a2.15,2.15,0,1,1-2.15-2.15A2.15,2.15,0,0,1,298.74,87.21Z"/><rect class="cls-3" x="260.05" y="45.68" width="93.15" height="26.03" rx="4.01"/><path class="cls-4" d="M303.35,45.68l-4.24,26H264.06a4,4,0,0,1-4-4v-18a4,4,0,0,1,4-4Z"/><rect x="299.34" y="17.85" width="14.57" height="81.69" transform="translate(365.32 -247.93) rotate(90)"/><rect class="cls-3" x="260.05" y="17.61" width="93.15" height="26.03" rx="4.01"/><path class="cls-4" d="M307.92,17.61l-4.24,26H264.06a4,4,0,0,1-4-4v-18a4,4,0,0,1,4-4Z"/><rect x="299.34" y="-10.22" width="14.57" height="81.69" transform="translate(337.25 -276) rotate(90)"/><path class="cls-1" d="M341,58.69a2.51,2.51,0,1,1-2.51-2.5A2.51,2.51,0,0,1,341,58.69Z"/><path class="cls-1" d="M330.18,58.69A2.15,2.15,0,1,1,328,56.54,2.15,2.15,0,0,1,330.18,58.69Z"/><path class="cls-1" d="M319.7,58.69a2.15,2.15,0,1,1-2.15-2.15A2.15,2.15,0,0,1,319.7,58.69Z"/><path class="cls-1" d="M309.22,58.69a2.15,2.15,0,1,1-2.15-2.15A2.15,2.15,0,0,1,309.22,58.69Z"/><path class="cls-1" d="M298.74,58.69a2.15,2.15,0,1,1-2.15-2.15A2.15,2.15,0,0,1,298.74,58.69Z"/><path class="cls-1" d="M341,30.63a2.51,2.51,0,1,1-2.51-2.51A2.51,2.51,0,0,1,341,30.63Z"/><path class="cls-1" d="M330.18,30.63A2.15,2.15,0,1,1,328,28.48,2.15,2.15,0,0,1,330.18,30.63Z"/><path class="cls-1" d="M319.7,30.63a2.15,2.15,0,1,1-2.15-2.15A2.15,2.15,0,0,1,319.7,30.63Z"/><path class="cls-1" d="M309.22,30.63a2.15,2.15,0,1,1-2.15-2.15A2.15,2.15,0,0,1,309.22,30.63Z"/><path class="cls-1" d="M298.74,30.63a2.15,2.15,0,1,1-2.15-2.15A2.15,2.15,0,0,1,298.74,30.63Z"/><path class="cls-5" d="M292.19,122.45V118.2l-2.91-.42a9,9,0,0,0-1.11-2.67l1.76-2.34-3-3-2.36,1.76a9.14,9.14,0,0,0-2.67-1.11l-.42-2.9h-4.24l-.42,2.9a9.31,9.31,0,0,0-2.68,1.11l-2.33-1.76-3,3,1.76,2.34a9,9,0,0,0-1.1,2.67l-2.9.42v4.25l2.9.41a9.19,9.19,0,0,0,1.1,2.69l-1.76,2.34,3,3,2.33-1.76a9.06,9.06,0,0,0,2.68,1.12l.42,2.9h4.24l.42-2.9a8.9,8.9,0,0,0,2.67-1.12l2.36,1.76,3-3-1.76-2.35a9.38,9.38,0,0,0,1.11-2.68Zm-12.81,3.19a5.32,5.32,0,1,1,5.31-5.31A5.3,5.3,0,0,1,279.38,125.64Z"/><path class="cls-6" d="M315.42,118.45c0-2.94,1.57-4.61,3.67-4.61s3.67,1.67,3.67,4.61-1.57,4.6-3.67,4.6S315.42,121.38,315.42,118.45Zm6.05,0c0-2.31-1-3.46-2.38-3.46s-2.39,1.15-2.39,3.46,1,3.45,2.39,3.45S321.47,120.75,321.47,118.45Z"/><path class="cls-6" d="M324,118.45c0-2.94,1.57-4.61,3.68-4.61s3.66,1.67,3.66,4.61-1.57,4.6-3.66,4.6S324,121.38,324,118.45Zm6.06,0c0-2.31-1-3.46-2.38-3.46s-2.39,1.15-2.39,3.46,1,3.45,2.39,3.45S330.06,120.75,330.06,118.45Z"/><path class="cls-6" d="M335.33,113.94v9h-1.27v-7.89h-2v-1.12Z"/><path class="cls-6" d="M337.31,118.45c0-2.94,1.56-4.61,3.67-4.61s3.67,1.67,3.67,4.61-1.57,4.6-3.67,4.6S337.31,121.38,337.31,118.45Zm6.05,0c0-2.31-1-3.46-2.38-3.46s-2.39,1.15-2.39,3.46,1,3.45,2.39,3.45S343.36,120.75,343.36,118.45Z"/><path class="cls-6" d="M348.64,113.94v9h-1.27v-7.89h-2v-1.12Z"/><path class="cls-6" d="M350.61,118.45c0-2.94,1.57-4.61,3.68-4.61s3.66,1.67,3.66,4.61-1.56,4.6-3.66,4.6S350.61,121.38,350.61,118.45Zm6.06,0c0-2.31-1-3.46-2.38-3.46s-2.39,1.15-2.39,3.46,1,3.45,2.39,3.45S356.67,120.75,356.67,118.45Z"/><path class="cls-6" d="M362,113.94v9h-1.28v-7.89h-2v-1.12Z"/><path class="cls-6" d="M130.7,111.36a2.71,2.71,0,1,1,2.71,2.71A2.7,2.7,0,0,1,130.7,111.36Z"/><path class="cls-6" d="M119,111.36a2.7,2.7,0,1,1,2.7,2.71A2.7,2.7,0,0,1,119,111.36Z"/><path class="cls-6" d="M106.24,111.36a3.82,3.82,0,1,1,3.82,3.82A3.82,3.82,0,0,1,106.24,111.36Z"/><path class="cls-6" d="M95.68,111.36a2.7,2.7,0,1,1,2.7,2.71A2.7,2.7,0,0,1,95.68,111.36Z"/></g></g></svg>