<svg width="895.43" height="145.46" xmlns="http://www.w3.org/2000/svg">

 <title>hypehost</title>
 <g>
  <title>Layer 1</title>
  <g fill="#fff" data-name="Camada 1" id="Camada_1-2">
   <path id="svg_10" fill="#fff" d="m94.8,113.11l-17.69,-22.45l-5.17,-6.77c-6.82,8.79 -13.11,17.36 -19.94,25.49c-2.9,3.46 -6.46,7.24 -10.49,8.62s-9.22,0.07 -15.21,-0.1c-4.56,5.27 -11.5,7.7 -19.74,3.77c-6.6,-3.15 -7.14,-6.17 -2.65,-11.91q5.4,-6.9 10.72,-13.84a3,3 0 0 0 0.37,-0.92a84.65,84.65 0 0 1 -8.45,-4.72c-2.86,-2 -3.37,-4.6 -1,-7.69q23.22,-29.76 46.3,-59.66c2.59,-3.35 5,-3.41 7.63,-0.05c4.56,5.93 9.16,11.84 14.3,18.48c3.15,-9.29 6,-17.91 9,-26.5c3.29,-9.52 1.61,-8.67 12,-8.68c3.84,0 7.68,-0.11 11.5,0.05a16.45,16.45 0 0 1 15.72,13.63c0.76,4.95 -0.4,6.35 -5.4,6.43c-1.79,0 -3.58,0 -6.14,0c1.71,5.16 3.21,9.65 5,15c4.86,-6.21 9.2,-11.81 13.6,-17.36c3.9,-4.92 5.23,-5 9.05,-0.08q22,28.22 43.88,56.48c4.82,6.21 3.9,9.56 -3.51,12.69c-1.37,0.58 -2.83,1 -4.77,1.6l12.59,16.27c3.32,4.3 3,6.15 -1.36,9.42c-7,5.21 -15.61,3.9 -23,-3.74c-0.73,0.25 -1.64,0.49 -2.48,0.86c-7.47,3.29 -14.4,1.76 -19.64,-4.79c-7.5,-9.36 -14.77,-18.89 -22.49,-28.8l-5.33,6.77l-17.2,22.5zm19.58,-93.9c-2.55,-4.27 -5.39,-5.85 -9.15,-5.88s-7.36,-0.34 -11,0.15a6.34,6.34 0 0 0 -4.42,3.26c-3.45,9.35 -6.56,18.84 -9.61,28.33c-0.45,1.41 -0.6,3.56 0.16,4.6c4.44,6.16 9.2,12.09 14.26,18.62c5.27,-6.93 12,-12.77 14.44,-20.05c1.6,-4.68 -3,-11.48 -4.77,-17.33c-0.29,-0.95 -0.61,-1.89 -0.93,-2.84c-2.61,-7.8 -1.92,-8.81 6.06,-8.86c1.35,-0.01 2.65,0 4.96,0zm-105.09,95.4c5.77,2.76 8.7,2 12.77,-3.22q22.23,-28.56 44.38,-57.2c4.74,-6.13 4.69,-6.17 -1.52,-11.34q-27.78,35.85 -55.63,71.76zm109.49,-65.68c3.68,4.76 6.94,9 10.21,13.17q19.11,24.66 38.25,49.3c4,5.18 7,5.95 12.79,3.21l-56.03,-72.27l-5.22,6.59zm9.77,-12.52c12.34,16 24.37,31.65 36.57,47.21c3.21,4.1 6.8,4.48 11.62,1.72l-43.13,-55.53l-5.06,6.6zm-72.91,-6.57c-14.56,18.8 -28.8,37.16 -43.1,55.62c5.48,2.75 8.66,2 12.43,-2.83c7,-8.93 13.87,-17.92 20.81,-26.88c5,-6.42 9.95,-12.83 15,-19.35l-5.14,-6.56zm101.66,80.5l-30.3,-38.99l-5.09,6.65c8.07,10.34 15.87,20.51 23.88,30.52c2.9,3.65 6.66,4.64 11.51,1.82zm-95.09,-38.92c-10.21,13.24 -20.15,26.01 -30.16,38.91c4.39,2.61 8.06,2.17 10.62,-1c8.39,-10.26 16.46,-20.77 24.71,-31.26l-5.17,-6.65zm27.85,2.66l-15,-19.24l-8.26,10.73c5,6.48 9.86,12.69 14.94,19.21l8.32,-10.7zm24.14,-19.3c-4.74,6.11 -9.15,11.68 -13.38,17.38a3.76,3.76 0 0 0 -0.34,3.39c2.08,3.06 4.5,5.87 7.07,9.12c5.19,-6.74 9.92,-12.87 14.82,-19.21l-8.17,-10.68zm-27.82,35.84l8.21,10.67l8.32,-10.63l-8.31,-10.66l-8.22,10.62z" class="cls-1"/>
   <text transform="matrix(8.24062 0 0 4.71267 -4677.57 -189.35)" stroke="null" xml:space="preserve" text-anchor="start" font-family="'Stick No Bills'" font-size="24" id="svg_20" y="95.69565" x="587.4894" stroke-width="0" fill="#ffffff">hypehost</text>
  </g>
  <line stroke-linecap="undefined" stroke-linejoin="undefined" id="svg_12" y2="-0.77" x2="214.285" y1="-0.77" x1="213.285" stroke="#000" fill="none"/>
  <text transform="matrix(8.11515 0 0 4.68437 -2339.95 -295.528)" stroke="null" xml:space="preserve" text-anchor="start" font-family="'Stick No Bills'" font-size="24" id="svg_21" y="86.23" x="313.9437" stroke-width="0" fill="#fff">hypehost</text>
 </g>
</svg>