<svg xmlns="http://www.w3.org/2000/svg" viewBox="0 0 895.43 145.46"><defs><style>.cls-1{fill:#a53c3c;}</style></defs><title>heavyhost2</title><g id="Camada_2" data-name="Camada 2"><g id="Camada_1-2" data-name="Camada 1"><path d="M223.39,109.6V5.06a4.85,4.85,0,0,1,1.48-3.62A5.05,5.05,0,0,1,228.53,0a4.92,4.92,0,0,1,5.06,5.06V50a18.82,18.82,0,0,1,8.09-8,26.61,26.61,0,0,1,13.14-3.15,41.35,41.35,0,0,1,12.41,1.68,24.48,24.48,0,0,1,8.48,4.31,20.47,20.47,0,0,1,5.09,6.46,26.83,26.83,0,0,1,2.61,7.55,46.9,46.9,0,0,1,.66,8.16V109.6a4.92,4.92,0,0,1-5.06,5.06,5,5,0,0,1-3.65-1.44,4.82,4.82,0,0,1-1.48-3.62V69.15a39.51,39.51,0,0,0-.82-8.67,18.65,18.65,0,0,0-2.88-6.61,12.21,12.21,0,0,0-5.87-4.47,26.3,26.3,0,0,0-9.49-1.48q-21.24,0-21.23,22.32V109.6a4.92,4.92,0,0,1-5.06,5.06,5.05,5.05,0,0,1-3.66-1.44A4.85,4.85,0,0,1,223.39,109.6Z"/><path d="M304.83,77.09q0-18.28,8.64-28.24t24.19-10a37.67,37.67,0,0,1,11.08,1.52,23.69,23.69,0,0,1,8.17,4.16,32.15,32.15,0,0,1,5.52,5.76,23.23,23.23,0,0,1,3.47,6.77,49.37,49.37,0,0,1,1.67,6.72,37.3,37.3,0,0,1,.5,6.11c0,1.56,0,2.76-.11,3.62a16.15,16.15,0,0,1-.66,3.07,4.51,4.51,0,0,1-1.95,2.65,6.92,6.92,0,0,1-3.65.85H315.18q0,11.91,6.42,18.94t17.62,7a27.27,27.27,0,0,0,10.57-1.83,39.12,39.12,0,0,0,8.56-5,5.34,5.34,0,0,1,2.88-1,4.39,4.39,0,0,1,3.27,1.36,4.57,4.57,0,0,1,1.32,3.3,5.13,5.13,0,0,1-1.71,3.66,28.47,28.47,0,0,1-4.36,3.46,36.55,36.55,0,0,1-8.36,3.62,39.1,39.1,0,0,1-12.17,1.87q-16.43,0-25.4-9.46T304.83,77.09Zm10.35-5.91H358a35.76,35.76,0,0,0-.93-8.48A25.36,25.36,0,0,0,354,55.42a14.19,14.19,0,0,0-6.3-5.4,23.58,23.58,0,0,0-10.07-2q-10.19,0-16,6.15T315.18,71.18Z"/><path d="M385.26,92.72q0-10.5,7.47-16.49t20.38-6h22.48V66q0-8.08-5.06-12.83t-13.77-4.75a25,25,0,0,0-10.46,1.95,24,24,0,0,0-8,6.22,5.56,5.56,0,0,1-4.2,2.26,4.4,4.4,0,0,1-3.27-1.36,4.58,4.58,0,0,1-1.32-3.31,5.29,5.29,0,0,1,.78-2.72,25.43,25.43,0,0,1,10.26-9.1,35.22,35.22,0,0,1,16.18-3.43q13.77,0,21.31,7.32T445.62,66v43.8a4.62,4.62,0,0,1-1.5,3.46,5,5,0,0,1-3.56,1.44,4.82,4.82,0,0,1-3.51-1.44,4.66,4.66,0,0,1-1.46-3.46V104a19.6,19.6,0,0,1-9.14,8.48,31,31,0,0,1-13.65,3q-12.84,0-20.19-6T385.26,92.72Zm10.34,0a12,12,0,0,0,4.52,10q4.5,3.58,13.61,3.58a23.31,23.31,0,0,0,15.4-5.37q6.47-5.37,6.46-15V79.19H413.11q-8.1,0-12.8,3.42T395.6,92.72Z"/><path d="M461.56,44.88a4.92,4.92,0,0,1,5.06-5.05,4.81,4.81,0,0,1,4.82,3.34l22.48,54.92,22.41-54.92a4.8,4.8,0,0,1,4.82-3.34,4.91,4.91,0,0,1,5.05,5.05,7.55,7.55,0,0,1-.46,2.26l-27.07,64.33a5.18,5.18,0,0,1-9.57,0L462,47.14A7.62,7.62,0,0,1,461.56,44.88Z"/><path d="M537.32,144.06a4.65,4.65,0,0,1-1.4-3.42,4.52,4.52,0,0,1,1.4-3.38,4.73,4.73,0,0,1,3.42-1.36,18.87,18.87,0,0,0,7.2-1.29,24.41,24.41,0,0,0,5.17-2.76,17.82,17.82,0,0,0,4.32-5.52q2.3-4,3.42-6.54t3.7-8.86a1.77,1.77,0,0,0,.11-.28c0-.07.07-.17.12-.27l-26.6-63.24a7.62,7.62,0,0,1-.47-2.26,4.92,4.92,0,0,1,5.06-5.05,4.81,4.81,0,0,1,4.82,3.34l22.48,54.92,22.4-54.92a4.82,4.82,0,0,1,4.83-3.34,4.92,4.92,0,0,1,5.05,5.05,7.55,7.55,0,0,1-.46,2.26l-31.35,74.75q-5.06,12.21-11.9,17.89t-17.9,5.68A4.65,4.65,0,0,1,537.32,144.06Z"/><path d="M621.64,109.6V5.06a4.82,4.82,0,0,1,1.48-3.62A5,5,0,0,1,626.77,0a4.92,4.92,0,0,1,5.06,5.06V50a18.82,18.82,0,0,1,8.09-8,26.64,26.64,0,0,1,13.14-3.15,41.35,41.35,0,0,1,12.41,1.68A24.48,24.48,0,0,1,674,44.88a20.64,20.64,0,0,1,5.1,6.46,27.12,27.12,0,0,1,2.6,7.55,46.9,46.9,0,0,1,.66,8.16V109.6a4.92,4.92,0,0,1-5,5.06,5,5,0,0,1-3.66-1.44,4.82,4.82,0,0,1-1.48-3.62V69.15a40.19,40.19,0,0,0-.81-8.67,19,19,0,0,0-2.88-6.61,12.28,12.28,0,0,0-5.88-4.47,26.3,26.3,0,0,0-9.49-1.48q-21.22,0-21.23,22.32V109.6a4.92,4.92,0,0,1-5.06,5.06,5,5,0,0,1-3.65-1.44A4.82,4.82,0,0,1,621.64,109.6Z"/><path d="M711.91,105.87q-8.83-9.65-8.83-28.78t8.79-28.67q8.79-9.53,24.65-9.53t24.7,9.53Q770,58,770,77.09t-8.75,28.78q-8.75,9.64-24.7,9.65Q720.74,115.52,711.91,105.87Zm1.51-28.78q0,29.16,23.1,29.17t23.11-29.17q0-29-23.11-29T713.42,77.09Z"/><path d="M787.16,100.81a4.53,4.53,0,0,1,4.59-4.59,4.84,4.84,0,0,1,3.5,1.56q7.86,7.86,20.22,7.86,7.47,0,12.18-2.76a9.27,9.27,0,0,0,4.7-8.59,8.1,8.1,0,0,0-1.79-5.21,13,13,0,0,0-4.75-3.65,64.78,64.78,0,0,0-6.73-2.71l-7.66-2.65a60.58,60.58,0,0,1-7.65-3.26,39.74,39.74,0,0,1-6.73-4.2,16.48,16.48,0,0,1-4.75-6,19,19,0,0,1-1.79-8.37q0-9.48,6.81-14.35t17.54-4.86q16.57,0,24.19,10.19a5.08,5.08,0,0,1,1.17,3,4.36,4.36,0,0,1-1.36,3.27,4.58,4.58,0,0,1-3.31,1.32,4.53,4.53,0,0,1-3.34-1.4,24.56,24.56,0,0,0-7.51-5,25.47,25.47,0,0,0-9.84-1.68A20.53,20.53,0,0,0,804.7,51q-4,2.26-4,7.39a8.75,8.75,0,0,0,1.77,5.38,13.35,13.35,0,0,0,4.7,3.87,53.7,53.7,0,0,0,6.73,2.84l7.66,2.7a68.71,68.71,0,0,1,7.64,3.23,44.67,44.67,0,0,1,6.78,4,15.81,15.81,0,0,1,4.77,5.73,17.62,17.62,0,0,1,1.8,8.07,19.2,19.2,0,0,1-3.65,11.86,20.6,20.6,0,0,1-9.65,7,40.2,40.2,0,0,1-13.77,2.18,37.38,37.38,0,0,1-16.33-3.5q-7.32-3.51-10.89-8A5.29,5.29,0,0,1,787.16,100.81Z"/><path d="M860.47,49.28a4.6,4.6,0,0,1-1.36-3.39,4.73,4.73,0,0,1,1.36-3.42,4.52,4.52,0,0,1,3.38-1.4h6.22V24.35a4.78,4.78,0,0,1,1.56-3.54,5,5,0,0,1,3.58-1.52,5,5,0,0,1,5,5.06V41.07h10.43a4.53,4.53,0,0,1,3.38,1.4,4.73,4.73,0,0,1,1.36,3.42,4.65,4.65,0,0,1-4.74,4.75H880.26v44c0,3.37.85,6,2.53,7.82a8.69,8.69,0,0,0,6.73,2.76,5,5,0,0,1,3.54,1.36,4.7,4.7,0,0,1,0,6.77,5,5,0,0,1-3.54,1.36q-9.25,0-14.35-5.52t-5.1-14.55V50.64h-6.22A4.56,4.56,0,0,1,860.47,49.28Z"/><path class="cls-1" d="M93.8,113.11,76.11,90.66l-5.17-6.77C64.12,92.68,57.83,101.25,51,109.38c-2.9,3.46-6.46,7.24-10.49,8.62s-9.22.07-15.21-.1c-4.56,5.27-11.5,7.7-19.74,3.77-6.6-3.15-7.14-6.17-2.65-11.91q5.4-6.9,10.72-13.84A3,3,0,0,0,14,95a84.65,84.65,0,0,1-8.45-4.72c-2.86-2-3.37-4.6-1-7.69q23.22-29.76,46.3-59.66c2.59-3.35,5-3.41,7.63-.05,4.56,5.93,9.16,11.84,14.3,18.47,3.15-9.28,6-17.9,9-26.49,3.29-9.52,1.61-8.67,12-8.68,3.84,0,7.68-.11,11.5.05A16.45,16.45,0,0,1,121,19.86c.76,4.95-.4,6.34-5.4,6.43-1.79,0-3.58,0-6.14,0,1.71,5.16,3.21,9.65,5,15,4.86-6.21,9.2-11.81,13.6-17.36,3.9-4.92,5.23-5,9.05-.08q22,28.22,43.88,56.48c4.82,6.21,3.9,9.56-3.51,12.69-1.37.58-2.83,1-4.77,1.6l12.59,16.27c3.32,4.3,3,6.15-1.36,9.42-7,5.21-15.61,3.9-23-3.74-.73.25-1.64.49-2.48.86-7.47,3.29-14.4,1.76-19.64-4.79-7.5-9.36-14.77-18.89-22.49-28.8L111,90.61Zm19.58-93.9c-2.55-4.27-5.39-5.85-9.15-5.88s-7.36-.35-11,.15a6.34,6.34,0,0,0-4.42,3.26c-3.45,9.35-6.56,18.84-9.61,28.33-.45,1.41-.6,3.56.16,4.6,4.44,6.16,9.2,12.09,14.26,18.62,5.27-6.93,12-12.77,14.44-20.05,1.6-4.68-3-11.48-4.77-17.33-.29-.95-.61-1.89-.93-2.84-2.61-7.8-1.92-8.81,6.06-8.86C109.77,19.2,111.07,19.21,113.38,19.21ZM8.29,114.61c5.77,2.76,8.7,2,12.77-3.22q22.23-28.56,44.38-57.2c4.74-6.13,4.69-6.17-1.52-11.34Q36.14,78.7,8.29,114.61ZM117.78,48.93c3.68,4.76,6.94,9,10.21,13.17q19.11,24.66,38.25,49.3c4,5.18,7,5.95,12.79,3.21L123,42.34Zm9.77-12.53c12.34,16,24.37,31.65,36.57,47.22,3.21,4.09,6.8,4.48,11.62,1.72L132.61,29.81C130.68,32.33,129.28,34.16,127.55,36.4ZM54.64,29.84C40.08,48.64,25.84,67,11.54,85.46c5.48,2.75,8.66,2,12.43-2.83,7-8.93,13.87-17.92,20.81-26.88,5-6.42,9.95-12.83,15-19.35Zm101.66,80.5L126,71.35,120.91,78c8.07,10.34,15.87,20.51,23.88,30.52C147.69,112.17,151.45,113.16,156.3,110.34ZM61.21,71.42C51,84.66,41.06,97.43,31.05,110.33c4.39,2.61,8.06,2.17,10.62-1,8.39-10.26,16.46-20.77,24.71-31.26Zm27.85,2.66-15-19.24L65.8,65.57c5,6.48,9.86,12.69,14.94,19.21Zm24.14-19.3c-4.74,6.11-9.15,11.68-13.38,17.38a3.76,3.76,0,0,0-.34,3.39c2.08,3.06,4.5,5.87,7.07,9.12,5.19-6.74,9.92-12.87,14.82-19.21ZM85.38,90.62l8.21,10.67,8.32-10.63L93.6,80Z"/></g></g></svg>