<?xml version="1.0" encoding="utf-8"?>
<!-- Generator: Adobe Illustrator 25.2.1, SVG Export Plug-In . SVG Version: 6.00 Build 0)  -->
<svg version="1.1" id="Layer_1" xmlns="http://www.w3.org/2000/svg" xmlns:xlink="http://www.w3.org/1999/xlink" x="0px" y="0px"
	 viewBox="0 0 895.4 145.5" style="enable-background:new 0 0 895.4 145.5;" xml:space="preserve">
<style type="text/css">
	.st0{fill:#A53C3C;}
	.st1{font-family:'!PEPSI!';}
	.st2{font-size:141.3527px;}
</style>
<g id="Camada_2">
	<g id="Camada_1-2">
		<path class="st0" d="M93.8,113.1L76.1,90.7l-5.2-6.8c-6.8,8.8-13.1,17.4-19.9,25.5c-2.9,3.5-6.5,7.2-10.5,8.6s-9.2,0.1-15.2-0.1
			c-4.6,5.3-11.5,7.7-19.7,3.8c-6.6-3.2-7.1-6.2-2.7-11.9c3.6-4.6,7.2-9.2,10.7-13.8c0.2-0.3,0.3-0.6,0.4-0.9
			c-2.9-1.4-5.7-3-8.4-4.7c-2.9-2-3.4-4.6-1-7.7C20,62.7,35.5,42.9,50.8,22.9c2.6-3.4,5-3.4,7.6,0c4.6,5.9,9.2,11.8,14.3,18.5
			c3.2-9.3,6-17.9,9-26.5c3.3-9.5,1.6-8.7,12-8.7c3.8,0,7.7-0.1,11.5,0.1c7.8,0.2,14.4,5.9,15.7,13.6c0.8,5-0.4,6.3-5.4,6.4
			c-1.8,0-3.6,0-6.1,0c1.7,5.2,3.2,9.7,5,15c4.9-6.2,9.2-11.8,13.6-17.4c3.9-4.9,5.2-5,9.1-0.1c14.7,18.8,29.3,37.6,43.9,56.5
			c4.8,6.2,3.9,9.6-3.5,12.7c-1.4,0.6-2.8,1-4.8,1.6l12.6,16.3c3.3,4.3,3,6.2-1.4,9.4c-7,5.2-15.6,3.9-23-3.7
			c-0.7,0.2-1.6,0.5-2.5,0.9c-7.5,3.3-14.4,1.8-19.6-4.8c-7.5-9.4-14.8-18.9-22.5-28.8l-5.3,6.8L93.8,113.1z M113.4,19.2
			c-2.6-4.3-5.4-5.9-9.2-5.9s-7.4-0.4-11,0.1c-1.9,0.4-3.5,1.6-4.4,3.3c-3.4,9.4-6.6,18.8-9.6,28.3c-0.4,1.4-0.6,3.6,0.2,4.6
			c4.4,6.2,9.2,12.1,14.3,18.6c5.3-6.9,12-12.8,14.4-20c1.6-4.7-3-11.5-4.8-17.3c-0.3-1-0.6-1.9-0.9-2.8c-2.6-7.8-1.9-8.8,6.1-8.9
			C109.8,19.2,111.1,19.2,113.4,19.2z M8.3,114.6c5.8,2.8,8.7,2,12.8-3.2c14.8-19,29.6-38.1,44.4-57.2c4.7-6.1,4.7-6.2-1.5-11.3
			C45.4,66.8,26.9,90.7,8.3,114.6z M117.8,48.9c3.7,4.8,6.9,9,10.2,13.2c12.7,16.4,25.5,32.9,38.2,49.3c4,5.2,7,5.9,12.8,3.2
			l-56-72.3L117.8,48.9z M127.6,36.4c12.3,16,24.4,31.7,36.6,47.2c3.2,4.1,6.8,4.5,11.6,1.7l-43.1-55.5
			C130.7,32.3,129.3,34.2,127.6,36.4z M54.6,29.8C40.1,48.6,25.8,67,11.5,85.5c5.5,2.8,8.7,2,12.4-2.8c7-8.9,13.9-17.9,20.8-26.9
			c5-6.4,10-12.8,15-19.3L54.6,29.8z M156.3,110.3l-30.3-39l-5.1,6.7c8.1,10.3,15.9,20.5,23.9,30.5
			C147.7,112.2,151.4,113.2,156.3,110.3z M61.2,71.4C51,84.7,41.1,97.4,31,110.3c4.4,2.6,8.1,2.2,10.6-1
			c8.4-10.3,16.5-20.8,24.7-31.3L61.2,71.4z M89.1,74.1l-15-19.2l-8.3,10.7c5,6.5,9.9,12.7,14.9,19.2L89.1,74.1z M113.2,54.8
			c-4.7,6.1-9.2,11.7-13.4,17.4c-0.6,1-0.8,2.3-0.3,3.4c2.1,3.1,4.5,5.9,7.1,9.1c5.2-6.7,9.9-12.9,14.8-19.2L113.2,54.8z M85.4,90.6
			l8.2,10.7l8.3-10.6L93.6,80L85.4,90.6z"/>
		<text transform="matrix(0.8716 0 0 1 195.2241 119.2314)" class="st1 st2">hypehost</text>
	</g>
</g>
</svg>
