<?xml version="1.0" encoding="utf-8"?>
<!-- Generator: Adobe Illustrator 25.2.1, SVG Export Plug-In . SVG Version: 6.00 Build 0)  -->
<svg version="1.1" id="Layer_1" xmlns="http://www.w3.org/2000/svg" xmlns:xlink="http://www.w3.org/1999/xlink" x="0px" y="0px"
	 viewBox="0 0 895.4 145.5" style="enable-background:new 0 0 895.4 145.5;" xml:space="preserve">
<style type="text/css">
	.st0{fill:#FFFFFF;}
	.st1{fill:none;stroke:#000000;}
	.st2{font-family:'!PEPSI!';}
	.st3{font-size:112.3786px;}
</style>
<g>
	<g id="Camada_1-2">
		<path id="svg_10" class="st0" d="M106.9,133.1l-18.3-26.5l-5.4-8c-7.1,10.4-13.6,20.5-20.7,30.1c-3,4.1-6.7,8.5-10.9,10.2
			c-4.2,1.6-9.6,0.1-15.8-0.1c-4.7,6.2-11.9,9.1-20.5,4.4c-6.8-3.7-7.4-7.3-2.7-14.1c3.7-5.4,7.4-10.9,11.1-16.3
			c0.2-0.3,0.3-0.7,0.4-1.1c-3-1.7-5.9-3.5-8.8-5.6c-3-2.4-3.5-5.4-1-9.1c16-23.4,32-46.9,48-70.4c2.7-4,5.2-4,7.9-0.1
			c4.7,7,9.5,14,14.8,21.8c3.3-11,6.2-21.1,9.3-31.3c3.4-11.2,1.7-10.2,12.4-10.2c4,0,8-0.1,11.9,0.1c8.1,0.3,14.9,7,16.3,16.1
			c0.8,5.8-0.4,7.5-5.6,7.6c-1.9,0-3.7,0-6.4,0c1.8,6.1,3.3,11.4,5.2,17.7c5-7.3,9.5-13.9,14.1-20.5c4-5.8,5.4-5.9,9.4-0.1
			c15.2,22.2,30.4,44.4,45.5,66.6c5,7.3,4,11.3-3.6,15c-1.4,0.7-2.9,1.2-4.9,1.9l13,19.2c3.4,5.1,3.1,7.3-1.4,11.1
			c-7.3,6.1-16.2,4.6-23.8-4.4c-0.8,0.3-1.7,0.6-2.6,1c-7.7,3.9-14.9,2.1-20.4-5.7c-7.8-11-15.3-22.3-23.3-34l-5.5,8L106.9,133.1
			L106.9,133.1z M127.2,22.3c-2.6-5-5.6-6.9-9.5-6.9c-3.9,0-7.6-0.4-11.4,0.2c-2,0.4-3.6,1.8-4.6,3.8c-3.6,11-6.8,22.2-10,33.4
			c-0.5,1.7-0.6,4.2,0.2,5.4c4.6,7.3,9.5,14.3,14.8,22c5.5-8.2,12.4-15.1,15-23.7c1.7-5.5-3.1-13.5-4.9-20.4c-0.3-1.1-0.6-2.2-1-3.4
			c-2.7-9.2-2-10.4,6.3-10.5C123.4,22.3,124.8,22.3,127.2,22.3z M18.3,134.8c6,3.3,9,2.4,13.2-3.8c15.4-22.5,30.7-45,46-67.5
			c4.9-7.2,4.9-7.3-1.6-13.4C56.7,78.4,37.5,106.6,18.3,134.8z M131.7,57.3c3.8,5.6,7.2,10.6,10.6,15.5
			c13.2,19.4,26.4,38.8,39.6,58.2c4.1,6.1,7.3,7,13.3,3.8l-58.1-85.3C137.1,49.6,131.7,57.3,131.7,57.3z M141.8,42.6
			c12.8,18.9,25.3,37.3,37.9,55.7c3.3,4.8,7,5.3,12,2l-44.7-65.5L141.8,42.6L141.8,42.6z M66.3,34.8C51.2,57,36.4,78.7,21.6,100.4
			c5.7,3.2,9,2.4,12.9-3.3C41.8,86.6,48.9,76,56.1,65.4c5.2-7.6,10.3-15.1,15.5-22.8C71.6,42.5,66.3,34.8,66.3,34.8z M171.6,129.8
			l-31.4-46l-5.3,7.8c8.4,12.2,16.4,24.2,24.7,36C162.7,132,166.6,133.1,171.6,129.8z M73.1,83.9c-10.6,15.6-20.9,30.7-31.3,45.9
			c4.5,3.1,8.4,2.6,11-1.2c8.7-12.1,17.1-24.5,25.6-36.9L73.1,83.9z M102,87L86.4,64.3L77.9,77c5.2,7.6,10.2,15,15.5,22.7
			C93.3,99.6,102,87,102,87z M127,64.2c-4.9,7.2-9.5,13.8-13.9,20.5c-0.7,1.2-0.8,2.7-0.4,4c2.2,3.6,4.7,6.9,7.3,10.8
			c5.4-8,10.3-15.2,15.4-22.7C135.4,76.8,127,64.2,127,64.2z M98.1,106.5l8.5,12.6l8.6-12.5L106.7,94L98.1,106.5z"/>
	</g>
	<line id="svg_12" class="st1" x1="-202.7" y1="12.4" x2="-201.7" y2="12.4"/>
	<text id="svg_21" transform="matrix(1.0619 0 0 1 217.1543 119.792)" class="st0 st2 st3">hypehost</text>
</g>
</svg>
